<?xml version="1.0" encoding="UTF-8"?>
<!DOCTYPE svg PUBLIC "-//W3C//DTD SVG 1.1//EN" "http://www.w3.org/Graphics/SVG/1.1/DTD/svg11.dtd">
<!-- Creator: CorelDRAW X7 -->
<svg xmlns="http://www.w3.org/2000/svg" xml:space="preserve" width="256px" height="256px" version="1.1" style="shape-rendering:geometricPrecision; text-rendering:geometricPrecision; image-rendering:optimizeQuality; fill-rule:evenodd; clip-rule:evenodd"
viewBox="0 0 184 184"
 xmlns:xlink="http://www.w3.org/1999/xlink">
 <defs>
  <style type="text/css">
   <![CDATA[
    .str0 {stroke:#FEFEFE;stroke-width:1.67988}
    .str1 {stroke:#2B2A29;stroke-width:1.67988}
    .str16 {stroke:#2B2A29;stroke-width:0.766024}
    .str12 {stroke:#FEFEFE;stroke-width:2.29807}
    .str9 {stroke:#FEFEFE;stroke-width:2.29807}
    .str7 {stroke:#FEFEFE;stroke-width:2.29807}
    .str14 {stroke:#FEFEFE;stroke-width:2.29807}
    .str2 {stroke:#FEFEFE;stroke-width:2.29807}
    .str13 {stroke:#FEFEFE;stroke-width:2.29807}
    .str15 {stroke:#FEFEFE;stroke-width:2.29807}
    .str6 {stroke:#FEFEFE;stroke-width:2.29807}
    .str3 {stroke:#FEFEFE;stroke-width:2.29807}
    .str10 {stroke:#FEFEFE;stroke-width:2.29807}
    .str5 {stroke:#FEFEFE;stroke-width:2.29807}
    .str4 {stroke:#FEFEFE;stroke-width:2.29807}
    .str11 {stroke:#FEFEFE;stroke-width:2.29807}
    .str8 {stroke:#FEFEFE;stroke-width:2.29807}
    .fil2 {fill:none}
    .fil0 {fill:#FEFEFE}
    .fil1 {fill:#1F1B20}
    .fil3 {fill:#D8D9DB}
    .fil4 {fill:white}
   ]]>
  </style>
 </defs>
 <g id="Layer_x0020_1">
  <metadata id="CorelCorpID_0Corel-Layer"/>
  <g id="_424770736">
   <rect class="fil0 str0" x="1" y="1" width="182" height="182"/>
   <g>
    <rect class="fil1 str1" x="1" y="1" width="182" height="182"/>
    <g>
     <g>
      <path class="fil2 str2" d="M21 98c9,10 51,2 60,2 5,-1 9,-1 14,-2 5,0 10,-1 18,0 7,1 9,4 10,6 1,5 -6,9 -7,10"/>
      <path class="fil2 str3" d="M117 113c-7,6 1,10 1,15"/>
      <path class="fil2 str4" d="M72 132c15,2 29,1 41,-1 1,0 3,0 4,-1 1,0 2,-1 1,-2"/>
      <path class="fil2 str5" d="M21 98c-10,-9 1,-28 20,-38 14,-8 30,-11 43,-5"/>
      <line class="fil2 str6" x1="89" y1="51" x2="83" y2= "55" />
      <path class="fil2 str7" d="M142 60c-16,0 -33,-2 -48,-7 -2,-1 -4,-1 -6,-2"/>
      <path class="fil2 str8" d="M37 119c10,-1 20,-5 25,-10"/>
      <path class="fil2 str9" d="M58 106c3,1 5,5 5,8"/>
      <path class="fil2 str10" d="M30 113c3,3 6,5 8,6 12,3 22,4 36,2"/>
      <path class="fil2 str11" d="M73 121c1,4 1,9 0,12"/>
      <path class="fil2 str12" d="M141 60c-9,18 -4,27 8,26 21,-3 18,6 16,6"/>
      <path class="fil2 str13" d="M136 104c0,3 1,7 2,10"/>
      <path class="fil2 str14" d="M162 112c-7,6 -16,6 -25,1"/>
      <path class="fil2 str15" d="M166 92c-3,3 -4,3 -6,4 -6,5 -8,4 -2,9 3,2 3,4 4,8"/>
     </g>
     <g>
      <path class="fil3" d="M49 68c8,0 14,7 14,15 0,8 -6,14 -14,14 -8,0 -15,-6 -15,-14 0,-8 7,-15 15,-15z"/>
      <path class="fil4" d="M48 69c8,0 14,6 14,13 0,8 -6,14 -14,14 -7,0 -13,-6 -13,-14 0,-7 6,-13 13,-13z"/>
      <path class="fil1 str16" d="M43 86c2,0 3,1 3,3 0,1 -1,2 -3,2 -1,0 -3,-1 -3,-2 0,-2 2,-3 3,-3z"/>
      <path class="fil0" d="M41 87c1,0 1,0 1,1 0,0 0,1 -1,1 -1,0 -1,-1 -1,-1 0,-1 0,-1 1,-1z"/>
     </g>
    </g>
   </g>
  </g>
 </g>
</svg>
